<svg width="271" height="81" viewBox="0 0 271 81" fill="none" xmlns="http://www.w3.org/2000/svg">
<rect x="74.5" y="6.5" width="196" height="56" fill="#D9D9D9" stroke="#FECDD3"/>
<path d="M49.8514 27.28V28.24C49.2434 28.304 48.6834 28.576 48.1714 29.056C47.6594 29.536 47.1794 30.384 46.7314 31.6L38.8594 52.24C38.7314 52.24 38.6034 52.24 38.4754 52.24C38.3474 52.24 38.2034 52.24 38.0434 52.24L29.2114 30.976C28.6994 29.728 28.1874 28.976 27.6754 28.72C27.1954 28.432 26.7794 28.288 26.4274 28.288V27.28C27.0674 27.312 27.7234 27.36 28.3954 27.424C29.0994 27.456 29.8514 27.472 30.6514 27.472C31.6434 27.472 32.6834 27.456 33.7714 27.424C34.8914 27.392 35.9314 27.344 36.8914 27.28V28.288C36.0914 28.288 35.3714 28.352 34.7314 28.48C34.1234 28.576 33.7234 28.88 33.5314 29.392C33.3714 29.904 33.5314 30.784 34.0114 32.032L40.0114 46.864L39.7234 47.104L45.1954 32.752C45.6114 31.696 45.7714 30.864 45.6754 30.256C45.6114 29.616 45.2914 29.136 44.7154 28.816C44.1714 28.496 43.3234 28.304 42.1714 28.24V27.28C42.7474 27.312 43.2434 27.344 43.6594 27.376C44.0754 27.376 44.4754 27.392 44.8594 27.424C45.2754 27.424 45.7234 27.424 46.2034 27.424C46.9394 27.424 47.5954 27.408 48.1714 27.376C48.7794 27.344 49.3394 27.312 49.8514 27.28ZM62.6419 26.608C65.4579 26.608 67.6499 27.472 69.2179 29.2C70.8179 30.896 71.6179 33.552 71.6179 37.168H54.6739L54.6259 36.256H67.0099C67.0739 34.688 66.9459 33.248 66.6259 31.936C66.3059 30.592 65.7939 29.52 65.0899 28.72C64.4179 27.92 63.5379 27.52 62.4499 27.52C60.9779 27.52 59.6659 28.256 58.5139 29.728C57.3939 31.2 56.7219 33.536 56.4979 36.736L56.6419 36.928C56.5779 37.408 56.5299 37.936 56.4979 38.512C56.4659 39.088 56.4499 39.664 56.4499 40.24C56.4499 42.416 56.8019 44.288 57.5059 45.856C58.2099 47.424 59.1219 48.624 60.2419 49.456C61.3939 50.256 62.5779 50.656 63.7939 50.656C64.7539 50.656 65.6659 50.512 66.5299 50.224C67.3939 49.904 68.1939 49.392 68.9299 48.688C69.6659 47.984 70.3059 47.04 70.8499 45.856L71.8099 46.24C71.4579 47.296 70.8819 48.32 70.0819 49.312C69.2819 50.304 68.2739 51.12 67.0579 51.76C65.8419 52.368 64.4339 52.672 62.8339 52.672C60.5299 52.672 58.5459 52.144 56.8819 51.088C55.2499 50.032 53.9859 48.576 53.0899 46.72C52.2259 44.832 51.7939 42.672 51.7939 40.24C51.7939 37.424 52.2419 35.008 53.1379 32.992C54.0339 30.944 55.2979 29.376 56.9299 28.288C58.5619 27.168 60.4659 26.608 62.6419 26.608ZM90.1872 26.608C91.0512 26.608 91.8032 26.784 92.4432 27.136C93.1152 27.488 93.6272 27.952 93.9792 28.528C94.3632 29.072 94.5552 29.696 94.5552 30.4C94.5552 31.2 94.2992 31.904 93.7872 32.512C93.3072 33.12 92.6512 33.424 91.8192 33.424C91.1472 33.424 90.5552 33.216 90.0432 32.8C89.5312 32.352 89.2752 31.728 89.2752 30.928C89.2752 30.32 89.4352 29.808 89.7552 29.392C90.1072 28.944 90.4912 28.592 90.9072 28.336C90.6832 28.016 90.3472 27.856 89.8992 27.856C88.9072 27.856 87.9952 28.16 87.1632 28.768C86.3312 29.344 85.6272 30.096 85.0512 31.024C84.4752 31.952 84.0272 32.944 83.7072 34C83.3872 35.024 83.2272 35.984 83.2272 36.88V47.056C83.2272 48.624 83.6752 49.68 84.5712 50.224C85.4992 50.736 86.7472 50.992 88.3152 50.992V52C87.5792 51.968 86.5392 51.936 85.1952 51.904C83.8512 51.84 82.4272 51.808 80.9232 51.808C79.8352 51.808 78.7472 51.84 77.6592 51.904C76.6032 51.936 75.8032 51.968 75.2592 52V50.992C76.5712 50.992 77.4992 50.752 78.0432 50.272C78.6192 49.792 78.9072 48.88 78.9072 47.536V32.512C78.9072 31.072 78.6512 30.016 78.1392 29.344C77.6272 28.64 76.6672 28.288 75.2592 28.288V27.28C76.2832 27.376 77.2752 27.424 78.2352 27.424C79.1632 27.424 80.0432 27.376 80.8752 27.28C81.7392 27.152 82.5232 26.976 83.2272 26.752V32.752C83.5792 31.824 84.0752 30.896 84.7152 29.968C85.3872 29.008 86.1872 28.208 87.1152 27.568C88.0432 26.928 89.0672 26.608 90.1872 26.608ZM114.675 19.312V27.328H121.779V28.288H114.675V46.864C114.675 48.368 114.947 49.424 115.491 50.032C116.035 50.64 116.787 50.944 117.747 50.944C118.707 50.944 119.539 50.56 120.243 49.792C120.947 48.992 121.555 47.664 122.067 45.808L123.027 46.048C122.707 47.904 122.067 49.472 121.107 50.752C120.179 52.032 118.739 52.672 116.787 52.672C115.699 52.672 114.803 52.528 114.099 52.24C113.395 51.984 112.771 51.6 112.227 51.088C111.523 50.352 111.027 49.472 110.739 48.448C110.483 47.424 110.355 46.064 110.355 44.368V28.288H105.747V27.328H110.355V19.984C111.155 19.952 111.923 19.888 112.659 19.792C113.395 19.696 114.067 19.536 114.675 19.312ZM135.675 26.608C137.723 26.608 139.563 27.056 141.195 27.952C142.827 28.848 144.123 30.256 145.083 32.176C146.075 34.096 146.571 36.592 146.571 39.664C146.571 42.736 146.075 45.232 145.083 47.152C144.123 49.04 142.827 50.432 141.195 51.328C139.563 52.224 137.723 52.672 135.675 52.672C133.659 52.672 131.819 52.224 130.155 51.328C128.523 50.432 127.211 49.04 126.219 47.152C125.259 45.232 124.779 42.736 124.779 39.664C124.779 36.592 125.259 34.096 126.219 32.176C127.211 30.256 128.523 28.848 130.155 27.952C131.819 27.056 133.659 26.608 135.675 26.608ZM135.675 27.568C133.851 27.568 132.347 28.512 131.163 30.4C130.011 32.288 129.435 35.376 129.435 39.664C129.435 43.952 130.011 47.04 131.163 48.928C132.347 50.784 133.851 51.712 135.675 51.712C137.499 51.712 138.987 50.784 140.139 48.928C141.323 47.04 141.915 43.952 141.915 39.664C141.915 35.376 141.323 32.288 140.139 30.4C138.987 28.512 137.499 27.568 135.675 27.568ZM172.052 14.368V46.768C172.052 48.208 172.308 49.28 172.82 49.984C173.364 50.656 174.324 50.992 175.7 50.992V52C174.708 51.904 173.716 51.856 172.724 51.856C171.796 51.856 170.9 51.904 170.036 52C169.204 52.096 168.436 52.272 167.732 52.528V20.128C167.732 18.688 167.476 17.632 166.964 16.96C166.452 16.256 165.492 15.904 164.084 15.904V14.896C165.108 14.992 166.1 15.04 167.06 15.04C167.988 15.04 168.868 14.992 169.7 14.896C170.564 14.768 171.348 14.592 172.052 14.368ZM161.972 26.608C163.38 26.608 164.692 26.944 165.908 27.616C167.156 28.288 167.988 29.44 168.404 31.072L167.78 31.552C167.332 30.208 166.628 29.232 165.668 28.624C164.74 28.016 163.636 27.712 162.356 27.712C160.468 27.712 158.884 28.688 157.604 30.64C156.356 32.592 155.748 35.6 155.78 39.664C155.78 42.256 156.02 44.416 156.5 46.144C157.012 47.84 157.748 49.12 158.708 49.984C159.7 50.816 160.9 51.232 162.308 51.232C163.652 51.232 164.868 50.656 165.956 49.504C167.044 48.352 167.7 46.656 167.924 44.416L168.5 45.088C168.244 47.52 167.46 49.392 166.148 50.704C164.868 52.016 163.124 52.672 160.916 52.672C158.932 52.672 157.188 52.192 155.684 51.232C154.212 50.272 153.076 48.832 152.276 46.912C151.508 44.992 151.124 42.576 151.124 39.664C151.124 36.752 151.62 34.336 152.612 32.416C153.636 30.464 154.964 29.008 156.596 28.048C158.26 27.088 160.052 26.608 161.972 26.608ZM189.863 26.608C191.911 26.608 193.751 27.056 195.383 27.952C197.015 28.848 198.311 30.256 199.271 32.176C200.263 34.096 200.759 36.592 200.759 39.664C200.759 42.736 200.263 45.232 199.271 47.152C198.311 49.04 197.015 50.432 195.383 51.328C193.751 52.224 191.911 52.672 189.863 52.672C187.847 52.672 186.007 52.224 184.343 51.328C182.711 50.432 181.399 49.04 180.407 47.152C179.447 45.232 178.967 42.736 178.967 39.664C178.967 36.592 179.447 34.096 180.407 32.176C181.399 30.256 182.711 28.848 184.343 27.952C186.007 27.056 187.847 26.608 189.863 26.608ZM189.863 27.568C188.039 27.568 186.535 28.512 185.351 30.4C184.199 32.288 183.623 35.376 183.623 39.664C183.623 43.952 184.199 47.04 185.351 48.928C186.535 50.784 188.039 51.712 189.863 51.712C191.687 51.712 193.175 50.784 194.327 48.928C195.511 47.04 196.103 43.952 196.103 39.664C196.103 35.376 195.511 32.288 194.327 30.4C193.175 28.512 191.687 27.568 189.863 27.568ZM212.992 26.608C214.272 26.608 215.36 26.816 216.256 27.232C217.152 27.648 217.808 28.032 218.224 28.384C219.28 29.248 219.92 28.672 220.144 26.656H221.248C221.184 27.552 221.136 28.624 221.104 29.872C221.072 31.088 221.056 32.736 221.056 34.816H219.952C219.76 33.632 219.424 32.48 218.944 31.36C218.496 30.24 217.824 29.328 216.928 28.624C216.032 27.888 214.864 27.52 213.424 27.52C212.304 27.52 211.36 27.84 210.592 28.48C209.856 29.088 209.488 30 209.488 31.216C209.488 32.176 209.776 33.008 210.352 33.712C210.928 34.384 211.68 35.024 212.608 35.632C213.536 36.208 214.544 36.848 215.632 37.552C216.848 38.32 217.952 39.104 218.944 39.904C219.936 40.704 220.72 41.584 221.296 42.544C221.904 43.504 222.208 44.64 222.208 45.952C222.208 47.424 221.824 48.656 221.056 49.648C220.288 50.64 219.28 51.392 218.032 51.904C216.816 52.416 215.472 52.672 214 52.672C213.296 52.672 212.624 52.608 211.984 52.48C211.376 52.384 210.784 52.224 210.208 52C209.888 51.84 209.552 51.648 209.2 51.424C208.88 51.2 208.56 50.96 208.24 50.704C207.92 50.448 207.632 50.464 207.376 50.752C207.12 51.008 206.928 51.536 206.8 52.336H205.696C205.76 51.312 205.808 50.064 205.84 48.592C205.872 47.12 205.888 45.168 205.888 42.736H206.992C207.216 44.528 207.536 46.096 207.952 47.44C208.368 48.784 209.024 49.84 209.92 50.608C210.816 51.344 212.064 51.712 213.664 51.712C214.304 51.712 214.944 51.568 215.584 51.28C216.256 50.992 216.816 50.512 217.264 49.84C217.712 49.168 217.936 48.272 217.936 47.152C217.936 45.744 217.424 44.592 216.4 43.696C215.376 42.8 214.08 41.856 212.512 40.864C211.36 40.128 210.272 39.392 209.248 38.656C208.256 37.92 207.44 37.088 206.8 36.16C206.192 35.232 205.888 34.112 205.888 32.8C205.888 31.36 206.208 30.192 206.848 29.296C207.52 28.368 208.4 27.696 209.488 27.28C210.576 26.832 211.744 26.608 212.992 26.608Z" fill="black"/>
<path d="M236.5 34.5H260.5M260.5 34.5L249.5 23.5M260.5 34.5L249.5 45.5" stroke="black" stroke-width="2"/>
</svg>
