<svg width="251" height="81" viewBox="0 0 251 81" fill="none" xmlns="http://www.w3.org/2000/svg">
<rect x="27.5" y="8.5" width="196" height="56" rx="4.5" fill="#070707" stroke="#FECDD3"/>
<path d="M58.2123 26.608C61.0283 26.608 63.2203 27.472 64.7883 29.2C66.3883 30.896 67.1883 33.552 67.1883 37.168H50.2443L50.1963 36.256H62.5803C62.6443 34.688 62.5163 33.248 62.1963 31.936C61.8763 30.592 61.3643 29.52 60.6603 28.72C59.9883 27.92 59.1083 27.52 58.0203 27.52C56.5483 27.52 55.2363 28.256 54.0843 29.728C52.9643 31.2 52.2923 33.536 52.0683 36.736L52.2122 36.928C52.1483 37.408 52.1003 37.936 52.0683 38.512C52.0363 39.088 52.0203 39.664 52.0203 40.24C52.0203 42.416 52.3723 44.288 53.0763 45.856C53.7803 47.424 54.6923 48.624 55.8123 49.456C56.9643 50.256 58.1483 50.656 59.3643 50.656C60.3243 50.656 61.2363 50.512 62.1003 50.224C62.9643 49.904 63.7643 49.392 64.5003 48.688C65.2363 47.984 65.8763 47.04 66.4203 45.856L67.3803 46.24C67.0283 47.296 66.4523 48.32 65.6523 49.312C64.8523 50.304 63.8443 51.12 62.6283 51.76C61.4123 52.368 60.0043 52.672 58.4043 52.672C56.1003 52.672 54.1163 52.144 52.4523 51.088C50.8203 50.032 49.5563 48.576 48.6603 46.72C47.7963 44.832 47.3643 42.672 47.3643 40.24C47.3643 37.424 47.8123 35.008 48.7083 32.992C49.6043 30.944 50.8683 29.376 52.5003 28.288C54.1323 27.168 56.0363 26.608 58.2123 26.608ZM78.9573 27.28V28.288C78.3493 28.288 77.8373 28.432 77.4213 28.72C77.0053 29.008 76.9573 29.408 77.2773 29.92L90.0933 48.592C90.6373 49.392 91.1173 49.968 91.5333 50.32C91.9493 50.64 92.4613 50.864 93.0693 50.992V52C92.7493 51.968 92.2533 51.936 91.5813 51.904C90.9413 51.84 90.3013 51.808 89.6613 51.808C88.6693 51.808 87.5973 51.84 86.4453 51.904C85.3253 51.936 84.5093 51.968 83.9973 52V50.992C84.6373 50.992 85.1653 50.848 85.5813 50.56C85.9973 50.24 86.0293 49.84 85.6773 49.36L72.8613 30.688C72.2213 29.76 71.7093 29.152 71.3253 28.864C70.9413 28.544 70.4613 28.352 69.8853 28.288V27.28C70.2053 27.312 70.7013 27.36 71.3733 27.424C72.0453 27.456 72.6853 27.472 73.2933 27.472C74.3173 27.472 75.3893 27.456 76.5093 27.424C77.6293 27.36 78.4453 27.312 78.9573 27.28ZM80.2533 39.472C80.2533 39.472 80.2853 39.584 80.3493 39.808C80.4133 40 80.4773 40.208 80.5413 40.432C80.6373 40.656 80.6853 40.768 80.6853 40.768L76.7013 45.952C75.8693 47.04 75.4213 47.952 75.3573 48.688C75.3253 49.424 75.6293 49.984 76.2693 50.368C76.9093 50.72 77.7893 50.944 78.9093 51.04V52C78.3653 51.968 77.7573 51.952 77.0853 51.952C76.4133 51.92 75.7573 51.904 75.1172 51.904C74.5093 51.872 73.9493 51.856 73.4373 51.856C72.7013 51.856 72.0293 51.872 71.4213 51.904C70.8453 51.904 70.3013 51.936 69.7893 52V51.04C70.3973 50.976 71.0213 50.704 71.6613 50.224C72.3333 49.712 73.1173 48.864 74.0133 47.68L80.2533 39.472ZM92.1093 27.28V28.24C91.5013 28.304 90.8293 28.624 90.0933 29.2C89.3893 29.744 88.6533 30.544 87.8853 31.6L82.3653 39.232C82.3653 39.232 82.3333 39.136 82.2693 38.944C82.2053 38.72 82.1413 38.512 82.0773 38.32C82.0133 38.096 81.9813 37.984 81.9813 37.984L85.7253 32.752C86.4293 31.76 86.8773 30.944 87.0693 30.304C87.2613 29.664 87.1493 29.184 86.7333 28.864C86.3493 28.512 85.5813 28.304 84.4293 28.24V27.28C85.2613 27.312 85.9493 27.344 86.4933 27.376C87.0693 27.408 87.7253 27.424 88.4613 27.424C89.1973 27.424 89.8533 27.408 90.4293 27.376C91.0373 27.344 91.5973 27.312 92.1093 27.28ZM102.696 26.752V56.224C102.696 57.6 103.096 58.512 103.896 58.96C104.728 59.44 105.864 59.68 107.304 59.68V60.688C106.6 60.656 105.624 60.608 104.376 60.544C103.128 60.512 101.8 60.496 100.392 60.496C99.3999 60.496 98.4079 60.512 97.4159 60.544C96.4559 60.608 95.7199 60.656 95.2079 60.688V59.68C96.3599 59.68 97.1759 59.472 97.6559 59.056C98.1359 58.64 98.3759 57.856 98.3759 56.704V32.512C98.3759 31.072 98.1199 30.016 97.6079 29.344C97.0959 28.64 96.1359 28.288 94.7279 28.288V27.28C95.7519 27.376 96.7439 27.424 97.7039 27.424C98.6319 27.424 99.5119 27.376 100.344 27.28C101.208 27.152 101.992 26.976 102.696 26.752ZM110.376 26.608C112.072 26.608 113.592 27.072 114.936 28C116.28 28.896 117.336 30.224 118.104 31.984C118.904 33.744 119.304 35.92 119.304 38.512C119.304 40.24 119.096 41.952 118.68 43.648C118.264 45.312 117.608 46.832 116.712 48.208C115.848 49.552 114.712 50.64 113.304 51.472C111.928 52.272 110.264 52.672 108.312 52.672C106.808 52.672 105.496 52.32 104.376 51.616C103.288 50.912 102.552 50.064 102.168 49.072L102.648 48.4C103.096 49.296 103.736 50.048 104.568 50.656C105.432 51.264 106.504 51.568 107.784 51.568C109.576 51.568 110.968 51.008 111.96 49.888C112.952 48.768 113.64 47.28 114.024 45.424C114.44 43.536 114.648 41.456 114.648 39.184C114.648 36.624 114.44 34.528 114.024 32.896C113.608 31.264 112.984 30.048 112.152 29.248C111.32 28.448 110.296 28.048 109.08 28.048C107.512 28.048 106.088 28.704 104.808 30.016C103.528 31.296 102.712 33.248 102.36 35.872L101.784 35.2C102.136 32.48 103.096 30.368 104.664 28.864C106.264 27.36 108.168 26.608 110.376 26.608ZM130.587 14.368V47.536C130.587 48.88 130.859 49.792 131.403 50.272C131.979 50.752 132.923 50.992 134.234 50.992V52C133.691 51.968 132.859 51.936 131.739 51.904C130.651 51.84 129.547 51.808 128.427 51.808C127.339 51.808 126.235 51.84 125.115 51.904C123.995 51.936 123.163 51.968 122.619 52V50.992C123.931 50.992 124.859 50.752 125.403 50.272C125.979 49.792 126.267 48.88 126.267 47.536V20.128C126.267 18.688 126.011 17.632 125.499 16.96C124.987 16.256 124.027 15.904 122.619 15.904V14.896C123.643 14.992 124.635 15.04 125.595 15.04C126.523 15.04 127.403 14.992 128.235 14.896C129.099 14.768 129.883 14.592 130.587 14.368ZM147.98 26.608C150.028 26.608 151.868 27.056 153.5 27.952C155.132 28.848 156.428 30.256 157.388 32.176C158.38 34.096 158.876 36.592 158.876 39.664C158.876 42.736 158.38 45.232 157.388 47.152C156.428 49.04 155.132 50.432 153.5 51.328C151.868 52.224 150.028 52.672 147.98 52.672C145.964 52.672 144.124 52.224 142.46 51.328C140.828 50.432 139.516 49.04 138.524 47.152C137.564 45.232 137.084 42.736 137.084 39.664C137.084 36.592 137.564 34.096 138.524 32.176C139.516 30.256 140.828 28.848 142.46 27.952C144.124 27.056 145.964 26.608 147.98 26.608ZM147.98 27.568C146.156 27.568 144.652 28.512 143.468 30.4C142.316 32.288 141.74 35.376 141.74 39.664C141.74 43.952 142.316 47.04 143.468 48.928C144.652 50.784 146.156 51.712 147.98 51.712C149.804 51.712 151.292 50.784 152.444 48.928C153.628 47.04 154.22 43.952 154.22 39.664C154.22 35.376 153.628 32.288 152.444 30.4C151.292 28.512 149.804 27.568 147.98 27.568ZM177.445 26.608C178.309 26.608 179.061 26.784 179.701 27.136C180.373 27.488 180.885 27.952 181.237 28.528C181.621 29.072 181.813 29.696 181.813 30.4C181.813 31.2 181.557 31.904 181.045 32.512C180.565 33.12 179.909 33.424 179.077 33.424C178.405 33.424 177.813 33.216 177.301 32.8C176.789 32.352 176.533 31.728 176.533 30.928C176.533 30.32 176.693 29.808 177.013 29.392C177.365 28.944 177.749 28.592 178.165 28.336C177.941 28.016 177.605 27.856 177.157 27.856C176.165 27.856 175.253 28.16 174.421 28.768C173.589 29.344 172.885 30.096 172.309 31.024C171.733 31.952 171.285 32.944 170.965 34C170.645 35.024 170.485 35.984 170.485 36.88V47.056C170.485 48.624 170.933 49.68 171.829 50.224C172.757 50.736 174.005 50.992 175.573 50.992V52C174.837 51.968 173.797 51.936 172.453 51.904C171.109 51.84 169.685 51.808 168.181 51.808C167.093 51.808 166.005 51.84 164.917 51.904C163.861 51.936 163.061 51.968 162.517 52V50.992C163.829 50.992 164.757 50.752 165.301 50.272C165.877 49.792 166.165 48.88 166.165 47.536V32.512C166.165 31.072 165.909 30.016 165.397 29.344C164.885 28.64 163.925 28.288 162.517 28.288V27.28C163.541 27.376 164.533 27.424 165.493 27.424C166.421 27.424 167.301 27.376 168.133 27.28C168.997 27.152 169.781 26.976 170.485 26.752V32.752C170.837 31.824 171.333 30.896 171.973 29.968C172.645 29.008 173.445 28.208 174.373 27.568C175.301 26.928 176.325 26.608 177.445 26.608ZM194.619 26.608C197.435 26.608 199.627 27.472 201.195 29.2C202.795 30.896 203.595 33.552 203.595 37.168H186.651L186.603 36.256H198.987C199.051 34.688 198.923 33.248 198.603 31.936C198.283 30.592 197.771 29.52 197.067 28.72C196.395 27.92 195.515 27.52 194.427 27.52C192.955 27.52 191.643 28.256 190.491 29.728C189.371 31.2 188.699 33.536 188.475 36.736L188.618 36.928C188.555 37.408 188.507 37.936 188.475 38.512C188.443 39.088 188.427 39.664 188.427 40.24C188.427 42.416 188.779 44.288 189.483 45.856C190.187 47.424 191.099 48.624 192.219 49.456C193.371 50.256 194.555 50.656 195.771 50.656C196.731 50.656 197.643 50.512 198.507 50.224C199.371 49.904 200.171 49.392 200.907 48.688C201.643 47.984 202.283 47.04 202.827 45.856L203.787 46.24C203.435 47.296 202.859 48.32 202.059 49.312C201.259 50.304 200.251 51.12 199.035 51.76C197.819 52.368 196.411 52.672 194.811 52.672C192.507 52.672 190.523 52.144 188.859 51.088C187.227 50.032 185.963 48.576 185.067 46.72C184.203 44.832 183.771 42.672 183.771 40.24C183.771 37.424 184.219 35.008 185.115 32.992C186.011 30.944 187.275 29.376 188.907 28.288C190.539 27.168 192.443 26.608 194.619 26.608Z" fill="#B5B7BA"/>
</svg>
