<svg width="120" height="39" viewBox="0 0 120 39" fill="none" xmlns="http://www.w3.org/2000/svg">
<path d="M29.16 3.26C28.704 3.116 28.284 3.044 27.9 3.044C27.444 3.044 27.084 3.176 26.82 3.44C26.58 3.68 26.46 4.04 26.46 4.52V26.84C26.46 27.32 26.58 27.692 26.82 27.956C27.084 28.196 27.444 28.316 27.9 28.316C28.284 28.316 28.704 28.244 29.16 28.1V29H21.06V28.1C21.54 28.244 21.96 28.316 22.32 28.316C22.776 28.316 23.124 28.196 23.364 27.956C23.628 27.692 23.76 27.32 23.76 26.84V3.764L14.904 29.72H14.364L4.716 6.068L4.752 26.84C4.752 27.296 4.968 27.656 5.4 27.92C5.856 28.184 6.408 28.316 7.056 28.316C7.536 28.316 8.016 28.244 8.496 28.1V29H0.36V28.1C0.816 28.244 1.284 28.316 1.764 28.316C2.388 28.316 2.904 28.184 3.312 27.92C3.72 27.656 3.924 27.296 3.924 26.84V4.52C3.924 4.064 3.756 3.704 3.42 3.44C3.084 3.176 2.628 3.044 2.052 3.044C1.644 3.044 1.2 3.116 0.72 3.26V2.36H6.3L15.588 25.328L23.04 2.36H29.16V3.26ZM36.0748 29.36C34.7308 29.36 33.6028 28.952 32.6908 28.136C31.7788 27.296 31.3228 26.108 31.3228 24.572C31.3228 23.468 31.6948 22.532 32.4388 21.764C33.1828 20.972 33.9988 20.432 34.8868 20.144C35.3428 20 35.8708 19.868 36.4708 19.748C37.0948 19.604 37.5148 19.508 37.7308 19.46C38.9308 19.22 39.8308 19.004 40.4308 18.812C41.0308 18.596 41.3908 18.308 41.5108 17.948C41.5108 16.22 41.1748 14.78 40.5028 13.628C39.8548 12.476 38.7628 11.9 37.2268 11.9C36.2668 11.9 35.5468 12.248 35.0668 12.944C34.6108 13.616 34.3828 14.528 34.3828 15.68C34.3828 15.992 34.4428 16.22 34.5628 16.364C34.6828 16.484 34.9588 16.544 35.3908 16.544C35.6548 16.544 35.8828 16.484 36.0748 16.364C36.2668 16.244 36.3628 16.1 36.3628 15.932H36.6868V16.904H31.9708C31.9708 16.04 32.2228 15.188 32.7268 14.348C33.2308 13.484 33.9268 12.788 34.8148 12.26C35.7028 11.708 36.6868 11.432 37.7668 11.432C39.2068 11.432 40.3588 11.768 41.2228 12.44C42.1108 13.088 42.7348 13.88 43.0948 14.816C43.4788 15.728 43.6708 16.64 43.6708 17.552V25.364C43.6708 27.164 44.0548 28.064 44.8228 28.064C45.0628 28.064 45.2788 27.908 45.4708 27.596C45.6868 27.26 45.7948 26.924 45.7948 26.588H46.1548C46.1548 27.476 45.8788 28.16 45.3268 28.64C44.7988 29.12 44.1868 29.36 43.4908 29.36C42.6748 29.36 42.1348 29 41.8708 28.28C41.6308 27.56 41.5108 26.552 41.5108 25.256V23.6C41.5108 23.936 41.3428 24.572 41.0068 25.508C40.6948 26.444 40.1308 27.32 39.3148 28.136C38.4988 28.952 37.4188 29.36 36.0748 29.36ZM36.9028 28.352C37.7188 28.352 38.4748 28.028 39.1708 27.38C39.8668 26.732 40.4188 25.964 40.8268 25.076C41.2348 24.188 41.4388 23.444 41.4388 22.844V18.74C41.4388 18.812 41.3188 18.884 41.0788 18.956C40.8388 19.028 40.5388 19.1 40.1788 19.172C38.6188 19.58 37.4788 19.916 36.7588 20.18C35.6308 20.588 34.8028 21.164 34.2748 21.908C33.7468 22.628 33.4828 23.444 33.4828 24.356C33.4828 25.412 33.7708 26.348 34.3468 27.164C34.9468 27.956 35.7988 28.352 36.9028 28.352ZM59.8233 24.644C60.8553 26.18 61.6113 27.224 62.0913 27.776C62.5953 28.304 63.1353 28.568 63.7113 28.568C63.9273 28.568 64.1553 28.532 64.3953 28.46V29H57.2313V28.46C57.5673 28.532 57.8433 28.568 58.0593 28.568C58.4193 28.568 58.6833 28.496 58.8513 28.352C59.0433 28.208 59.1393 28.04 59.1393 27.848C59.1393 27.632 59.0913 27.464 58.9953 27.344L55.2513 21.872L52.9473 18.488L51.5433 19.82V26.84C51.5433 27.464 51.5913 27.92 51.6873 28.208C51.8073 28.496 52.0593 28.64 52.4433 28.64C52.6353 28.64 52.9353 28.58 53.3433 28.46V29H47.5833V28.46C47.9913 28.58 48.2913 28.64 48.4833 28.64C48.9153 28.64 49.1913 28.496 49.3113 28.208C49.4313 27.896 49.4913 27.44 49.4913 26.84V2.18C49.2513 2.252 48.9753 2.288 48.6633 2.288C48.3273 2.288 47.9673 2.252 47.5833 2.18V1.208H47.9073C47.9073 1.352 48.0273 1.496 48.2673 1.64C48.5313 1.76 48.7833 1.82 49.0233 1.82C49.5753 1.82 50.0433 1.676 50.4273 1.388C50.8113 1.076 51.0033 0.679999 51.0033 0.2H51.5793L51.5433 19.172L53.9193 16.976C55.2153 15.824 56.2113 14.9 56.9073 14.204C57.2673 13.844 57.4473 13.52 57.4473 13.232C57.4473 13.016 57.3513 12.848 57.1593 12.728C56.9913 12.608 56.7513 12.548 56.4393 12.548C56.1753 12.548 55.8273 12.608 55.3953 12.728V12.188H61.5153V12.728C61.1073 12.608 60.7713 12.548 60.5073 12.548C59.9553 12.548 59.4513 12.704 58.9953 13.016C58.5393 13.304 58.0233 13.736 57.4473 14.312C56.7753 14.984 55.8633 15.848 54.7113 16.904L59.8233 24.644ZM70.4706 29.36C68.1906 29.36 66.4866 28.604 65.3586 27.092C64.2306 25.556 63.6666 23.324 63.6666 20.396C63.6666 18.86 63.9066 17.42 64.3866 16.076C64.8666 14.708 65.6106 13.604 66.6186 12.764C67.6506 11.9 68.9106 11.468 70.3986 11.468C72.8226 11.468 74.5506 12.212 75.5826 13.7C76.6146 15.164 77.1306 16.928 77.1306 18.992C77.1306 19.352 77.1066 19.82 77.0586 20.396L77.0226 20.72H66.1866C66.2826 26.096 67.7826 28.784 70.6866 28.784C71.9826 28.784 72.9426 28.388 73.5666 27.596C74.1906 26.804 74.5026 25.904 74.5026 24.896C74.5026 24.488 74.3946 24.188 74.1786 23.996C73.9866 23.804 73.7346 23.708 73.4226 23.708C73.1826 23.708 72.9666 23.78 72.7746 23.924C72.6066 24.044 72.5226 24.2 72.5226 24.392H72.1986V23.42H76.7706C76.8426 24.332 76.6146 25.244 76.0866 26.156C75.5826 27.068 74.8386 27.824 73.8546 28.424C72.8706 29.024 71.7426 29.336 70.4706 29.36ZM73.6746 20.18C74.1066 20.18 74.3586 20.144 74.4306 20.072C74.5266 19.976 74.5866 19.76 74.6106 19.424C74.6346 19.16 74.6466 18.764 74.6466 18.236C74.6466 16.412 74.3106 14.9 73.6386 13.7C72.9666 12.5 71.8386 11.9 70.2546 11.9C68.7186 11.9 67.6626 12.656 67.0866 14.168C66.5106 15.68 66.2106 17.684 66.1866 20.18H73.6746ZM91.7544 29.72C90.1704 29.72 88.6944 29.42 87.3264 28.82C85.9824 28.22 84.8544 27.236 83.9424 25.868C83.0544 24.476 82.5864 22.676 82.5384 20.468V4.52C82.5384 4.04 82.4064 3.68 82.1424 3.44C81.9024 3.176 81.5544 3.044 81.0984 3.044C80.7144 3.044 80.2944 3.116 79.8384 3.26V2.36L81.2064 2.396C82.4064 2.444 83.3184 2.468 83.9424 2.468C84.5664 2.468 85.4544 2.444 86.6064 2.396L87.9384 2.36V3.26C87.4824 3.116 87.0624 3.044 86.6784 3.044C86.2224 3.044 85.8624 3.176 85.5984 3.44C85.3584 3.68 85.2384 4.04 85.2384 4.52V20.036C85.2384 22.148 85.5744 23.876 86.2464 25.22C86.9184 26.564 87.7584 27.536 88.7664 28.136C89.7744 28.736 90.8184 29.036 91.8984 29.036C94.5624 29.036 96.4104 28.1 97.4424 26.228C98.4744 24.356 98.9904 22.208 98.9904 19.784V4.484C98.9904 4.028 98.7864 3.668 98.3784 3.404C97.9944 3.14 97.4904 3.008 96.8664 3.008C96.3864 3.008 95.9184 3.08 95.4624 3.224V2.36H103.13V3.224C102.65 3.08 102.206 3.008 101.798 3.008C101.27 3.008 100.838 3.14 100.502 3.404C100.19 3.668 100.034 4.028 100.034 4.484V20.036C100.01 21.812 99.6864 23.432 99.0624 24.896C98.4624 26.36 97.5384 27.536 96.2904 28.424C95.0664 29.288 93.5544 29.72 91.7544 29.72ZM103.139 37.82C103.547 37.94 103.847 38 104.039 38C104.471 38 104.747 37.844 104.867 37.532C104.987 37.244 105.047 36.8 105.047 36.2V14.06C104.687 14.18 104.303 14.24 103.895 14.24C103.727 14.24 103.475 14.216 103.139 14.168V13.196H103.463C103.463 13.364 103.547 13.508 103.715 13.628C103.907 13.748 104.123 13.808 104.363 13.808C104.699 13.808 104.999 13.676 105.263 13.412C105.527 13.148 105.851 12.74 106.235 12.188H107.315V14.456H107.963C108.947 12.464 110.555 11.468 112.787 11.468C115.019 11.468 116.627 12.38 117.611 14.204C118.595 16.004 119.087 18.308 119.087 21.116C119.087 22.604 118.847 23.972 118.367 25.22C117.887 26.468 117.167 27.476 116.207 28.244C115.271 28.988 114.119 29.36 112.751 29.36C111.599 29.36 110.603 29.024 109.763 28.352C108.923 27.68 108.251 26.804 107.747 25.724H107.171L107.135 35.12V36.2C107.135 36.824 107.183 37.28 107.279 37.568C107.399 37.856 107.651 38 108.035 38C108.227 38 108.527 37.94 108.935 37.82V38.36H103.139V37.82ZM107.603 20.54C107.603 21.692 107.759 22.916 108.071 24.212C108.407 25.508 108.923 26.624 109.619 27.56C110.315 28.472 111.179 28.928 112.211 28.928C113.699 28.928 114.791 28.124 115.487 26.516C116.207 24.908 116.567 22.928 116.567 20.576C116.567 18.176 116.219 16.172 115.523 14.564C114.827 12.932 113.699 12.116 112.139 12.116C110.411 12.116 109.223 12.908 108.575 14.492C107.927 16.052 107.603 18.068 107.603 20.54Z" fill="#F3F4F6"/>
</svg>
