<svg width="37" height="37" viewBox="0 0 37 37" fill="none" xmlns="http://www.w3.org/2000/svg">
<path d="M10.8883 32.7472C10.1911 32.7472 9.60553 32.5098 9.13171 32.035C8.65789 31.5604 8.42099 30.9744 8.42099 30.2769C8.42099 29.5796 8.65839 28.9941 9.13321 28.5203C9.60777 28.0465 10.1938 27.8095 10.8913 27.8095C11.5886 27.8095 12.1741 28.047 12.6479 28.5218C13.1217 28.9963 13.3587 29.5824 13.3587 30.2799C13.3587 30.9771 13.1212 31.5627 12.6464 32.0365C12.1719 32.5103 11.5858 32.7472 10.8883 32.7472ZM25.5517 32.7472C24.8545 32.7472 24.2689 32.5098 23.7951 32.035C23.3213 31.5604 23.0844 30.9744 23.0844 30.2769C23.0844 29.5796 23.3218 28.9941 23.7966 28.5203C24.2712 28.0465 24.8572 27.8095 25.5547 27.8095C26.252 27.8095 26.8375 28.047 27.3113 28.5218C27.7851 28.9963 28.022 29.5824 28.022 30.2799C28.022 30.9771 27.7846 31.5627 27.3098 32.0365C26.8353 32.5103 26.2492 32.7472 25.5517 32.7472ZM9.01949 8.73218L12.9846 17.0364H22.9722C23.1966 17.0364 23.3961 16.9803 23.5707 16.8681C23.7452 16.7559 23.8948 16.6 24.0195 16.4005L27.648 9.77956C27.7976 9.50525 27.8101 9.26211 27.6854 9.05014C27.5607 8.83817 27.3487 8.73218 27.0495 8.73218H9.01949ZM8.04692 6.71222H28.7702C29.4313 6.71222 29.927 6.9803 30.2575 7.51647C30.5876 8.05263 30.5906 8.60749 30.2664 9.18106L25.5532 17.7098C25.3288 18.1088 25.0177 18.433 24.6199 18.6823C24.2222 18.9317 23.7851 19.0564 23.3088 19.0564H12.3113L10.8898 21.6C10.6903 21.8993 10.6841 22.2235 10.8711 22.5726C11.0582 22.9217 11.3387 23.0963 11.7128 23.0963H28.0969V25.1163H10.8898C9.89231 25.1163 9.16912 24.6986 8.72024 23.8631C8.27136 23.0277 8.27136 22.1986 8.72024 21.3756L10.8898 17.4105L5.35364 5.73965H2.51074V3.7197H6.62547L8.04692 6.71222Z" fill="#F3F4F6"/>
</svg>
