<svg width="34" height="35" viewBox="0 0 34 35" fill="none" xmlns="http://www.w3.org/2000/svg">
<path d="M24.7954 20.2253L20.556 18.1056C20.4307 18.0433 20.2913 18.0152 20.1517 18.024C20.0122 18.0328 19.8774 18.0784 19.7611 18.1559L17.6838 19.5404C16.6321 19.002 15.7765 18.1464 15.2381 17.0947L16.6239 15.0188C16.7015 14.9024 16.747 14.7676 16.7558 14.6281C16.7646 14.4885 16.7365 14.3491 16.6742 14.2239L14.5545 9.98445C14.4886 9.85182 14.387 9.74023 14.261 9.66228C14.1351 9.58433 13.9899 9.54312 13.8418 9.54329C12.5066 9.54329 11.2261 10.0737 10.282 11.0178C9.33788 11.9619 8.80748 13.2424 8.80748 14.5776C8.81098 17.5982 10.0125 20.4942 12.1484 22.6301C14.2843 24.766 17.1803 25.9675 20.2009 25.971C21.5361 25.971 22.8166 25.4406 23.7607 24.4965C24.7048 23.5524 25.2352 22.2719 25.2352 20.9367C25.2353 20.789 25.1941 20.6441 25.1164 20.5185C25.0387 20.3928 24.9276 20.2913 24.7954 20.2253ZM20.2009 24.3812C17.6018 24.3781 15.11 23.3442 13.2722 21.5063C11.4343 19.6685 10.4004 17.1767 10.3973 14.5776C10.3973 13.7463 10.6981 12.943 11.244 12.316C11.7899 11.6891 12.5441 11.2807 13.3675 11.1662L15.0447 14.5206L13.6682 16.5847C13.5959 16.6936 13.5515 16.8186 13.5391 16.9487C13.5266 17.0788 13.5464 17.2099 13.5967 17.3306C14.3276 19.0684 15.7101 20.4509 17.4479 21.1818C17.5686 21.2321 17.6997 21.2519 17.8298 21.2394C17.9599 21.227 18.0849 21.1826 18.1938 21.1103L20.2579 19.7338L23.6123 21.411C23.4978 22.2344 23.0894 22.9886 22.4625 23.5345C21.8355 24.0804 21.0322 24.3812 20.2009 24.3812ZM17.0213 4.24402C14.6788 4.24353 12.3763 4.85201 10.3399 6.00978C8.30342 7.16755 6.60292 8.83483 5.40519 10.848C4.20747 12.8613 3.55367 15.1513 3.50795 17.4934C3.46222 19.8355 4.02613 22.1493 5.14436 24.2077L3.60492 28.8273C3.49594 29.1541 3.48012 29.5048 3.55924 29.8401C3.63837 30.1754 3.80931 30.482 4.0529 30.7256C4.29649 30.9692 4.60311 31.1401 4.9384 31.2192C5.27368 31.2984 5.62437 31.2826 5.95117 31.1736L10.5708 29.6341C12.3792 30.6155 14.3877 31.1709 16.4433 31.2581C18.499 31.3454 20.5474 30.962 22.4323 30.1374C24.3173 29.3127 25.9891 28.0685 27.3202 26.4996C28.6513 24.9308 29.6066 23.0787 30.1132 21.0846C30.6198 19.0904 30.6644 17.007 30.2435 14.993C29.8227 12.979 28.9475 11.0878 27.6847 9.4634C26.4219 7.83903 24.8049 6.52447 22.9569 5.61994C21.1089 4.71542 19.0788 4.24481 17.0213 4.24402ZM17.0213 29.6805C14.9254 29.681 12.8663 29.129 11.0517 28.0801C10.9307 28.0106 10.7938 27.9736 10.6543 27.9728C10.5687 27.9733 10.4838 27.9872 10.4026 28.0139L5.44907 29.6646C5.40238 29.6802 5.35228 29.6824 5.30438 29.6711C5.25649 29.6598 5.21268 29.6354 5.17788 29.6006C5.14309 29.5658 5.11867 29.522 5.10736 29.4741C5.09606 29.4262 5.09832 29.3761 5.11389 29.3294L6.76461 24.3812C6.80032 24.2743 6.81289 24.161 6.80147 24.0489C6.79005 23.9367 6.7549 23.8283 6.69837 23.7308C5.38316 21.4588 4.85451 18.8163 5.19442 16.2133C5.53434 13.6102 6.72382 11.1921 8.57832 9.33407C10.4328 7.47604 12.8487 6.28198 15.4511 5.93713C18.0535 5.59227 20.697 6.11591 22.9714 7.4268C25.2458 8.73769 27.0241 10.7626 28.0302 13.1872C29.0364 15.6119 29.2142 18.3009 28.5361 20.837C27.8581 23.373 26.362 25.6144 24.28 27.2134C22.198 28.8124 19.6465 29.6796 17.0213 29.6805Z" fill="#F3F4F6"/>
</svg>
