<svg width="37" height="42" viewBox="0 0 37 42" fill="none" xmlns="http://www.w3.org/2000/svg">
<path d="M30.356 32.4638L20.8836 22.991C20.1354 23.5837 19.219 24.0485 18.1342 24.3851C17.0494 24.7218 15.9747 24.8901 14.9101 24.8901C12.1033 24.8901 9.72703 23.9174 7.78114 21.972C5.83525 20.0266 4.8623 17.6508 4.8623 14.8446C4.8623 12.0386 5.835 9.662 7.78039 7.71486C9.72579 5.76797 12.1016 4.79453 14.9078 4.79453C17.7138 4.79453 20.0904 5.76747 22.0375 7.71336C23.9844 9.65925 24.9579 12.0356 24.9579 14.8423C24.9579 15.9358 24.7973 16.9938 24.4761 18.0163C24.1546 19.0387 23.6947 19.9345 23.0962 20.7036L32.606 30.2134L30.356 32.4638ZM14.9101 21.6735C16.838 21.6735 18.4585 21.0169 19.7715 19.7037C21.0847 18.3907 21.7413 16.7702 21.7413 14.8423C21.7413 12.9144 21.0847 11.2939 19.7715 9.98095C18.4585 8.66773 16.838 8.01112 14.9101 8.01112C12.9822 8.01112 11.3617 8.66773 10.0487 9.98095C8.73551 11.2939 8.0789 12.9144 8.0789 14.8423C8.0789 16.7702 8.73551 18.3907 10.0487 19.7037C11.3617 21.0169 12.9822 21.6735 14.9101 21.6735Z" fill="#F3F4F6"/>
</svg>
